<svg xmlns="http://www.w3.org/2000/svg" width="56" height="56" viewBox="0 0 56 56">
  <g id="facebook" transform="translate(1.226 0.733)">
    <circle id="楕円形_3" data-name="楕円形 3" cx="27" cy="27" r="27" transform="translate(-0.226 0.267)" fill="#1977f3"/>
    <path id="パス_3" data-name="パス 3" d="M4215.662,2802.348l1.2-7.834h-7.514v-5.083c0-2.142,1.048-4.233,4.417-4.233h3.418v-6.668a41.642,41.642,0,0,0-6.066-.53c-6.188,0-10.234,3.75-10.234,10.543v5.971H4194v7.834h6.882v18.934a27.189,27.189,0,0,0,4.233.328,27.676,27.676,0,0,0,4.233-.328v-18.934Z" transform="translate(-4178.105 -2766.978)" fill="#fff"/>
  </g>
  <rect id="長方形_1" data-name="長方形 1" width="56" height="56" fill="none"/>
</svg>
