<svg xmlns="http://www.w3.org/2000/svg" width="56" height="56" viewBox="0 0 56 56">
  <g id="Twitter_Social_Icon_Circle_Color" transform="translate(1 1)">
    <g id="Dark_Blue">
      <circle id="楕円形_1" data-name="楕円形 1" cx="27" cy="27" r="27" fill="#1da1f2"/>
    </g>
    <g id="Logo__x2014__FIXED" transform="translate(12.193 15.564)">
      <path id="パス_1" data-name="パス 1" d="M99.718,140.463c12.057,0,18.65-9.991,18.65-18.65,0-.285,0-.571-.014-.843a13.428,13.428,0,0,0,3.276-3.4,13.3,13.3,0,0,1-3.765,1.033,6.551,6.551,0,0,0,2.882-3.629,13.274,13.274,0,0,1-4.16,1.59,6.558,6.558,0,0,0-11.337,4.486,6.006,6.006,0,0,0,.177,1.5A18.594,18.594,0,0,1,91.916,115.7a6.551,6.551,0,0,0,2.039,8.74,6.439,6.439,0,0,1-2.963-.816v.082a6.562,6.562,0,0,0,5.261,6.43,6.534,6.534,0,0,1-1.726.231,6.258,6.258,0,0,1-1.237-.122,6.545,6.545,0,0,0,6.117,4.554,13.176,13.176,0,0,1-8.142,2.8,11.92,11.92,0,0,1-1.563-.1,18.262,18.262,0,0,0,10.018,2.963" transform="translate(-89.7 -114.5)" fill="#fff"/>
    </g>
  </g>
  <rect id="長方形_2" data-name="長方形 2" width="56" height="56" fill="none"/>
</svg>
