<svg id="facebook" xmlns="http://www.w3.org/2000/svg" width="32" height="32" viewBox="0 0 32 32">
  <g id="facebook-2" data-name="facebook" transform="translate(0 0)">
    <ellipse id="楕円形_3" data-name="楕円形 3" cx="16" cy="15.896" rx="16" ry="15.896" transform="translate(0 0)" fill="#1977f3" />
    <path id="パス_3" data-name="パス 3" d="M4206.378,2791.913l.686-4.477h-4.294v-2.9a2.238,2.238,0,0,1,2.524-2.419h1.953v-3.81a23.783,23.783,0,0,0-3.466-.3c-3.536,0-5.848,2.143-5.848,6.024v3.412H4194v4.477h3.933v10.82a15.553,15.553,0,0,0,2.419.188,15.877,15.877,0,0,0,2.418-.187v-10.82Z" transform="translate(-4184.19 -2770.92)" fill="#fff" />
  </g>
  <rect id="長方形_1" data-name="長方形 1" width="32" height="32" transform="translate(0 0)" fill="none" />
</svg>
