<svg xmlns="http://www.w3.org/2000/svg" width="32" height="32" viewBox="0 0 32 32">
  <path id="path20" d="M16.466,1.15A16.182,16.182,0,0,0,.514,17.546a16.513,16.513,0,0,0,10.864,15.59.84.84,0,0,0,1.076-.805V29.517C8.049,30.522,7.07,27.3,7.07,27.3a4.13,4.13,0,0,0-1.762-2.416c-1.468-1,.1-1,.1-1a3.421,3.421,0,0,1,2.446,1.71A3.338,3.338,0,0,0,12.453,27a3.536,3.536,0,0,1,.978-2.213c-3.522-.4-7.242-1.81-7.242-8.147a6.332,6.332,0,0,1,1.664-4.425,5.868,5.868,0,0,1,.2-4.325s1.369-.4,4.4,1.71a13.33,13.33,0,0,1,4.012-.5,17.56,17.56,0,0,1,4.013.5c3.034-2.112,4.4-1.71,4.4-1.71a6.464,6.464,0,0,1,.2,4.325,6.607,6.607,0,0,1,1.662,4.425c0,6.337-3.719,7.645-7.242,8.047a3.9,3.9,0,0,1,1.076,3.018v4.526a.842.842,0,0,0,1.076.805A16.431,16.431,0,0,0,16.464,1.151Z" transform="translate(-0.514 -1.15)" fill="#aaa" fill-rule="evenodd" />
</svg>
