<svg xmlns="http://www.w3.org/2000/svg" width="32" height="32" viewBox="0 0 32 32">
  <g id="グループ_1" data-name="グループ 1" transform="translate(-370 -333)">
    <rect id="長方形_1" data-name="長方形 1" width="32" height="32" transform="translate(370 333)" fill="none" />
    <path id="path20" d="M15.967,1.15A15.675,15.675,0,0,0,.514,17.033a16,16,0,0,0,10.523,15.1.814.814,0,0,0,1.043-.78V28.628c-4.267.974-5.215-2.143-5.215-2.143a4,4,0,0,0-1.707-2.34c-1.422-.973.1-.973.1-.973a3.314,3.314,0,0,1,2.369,1.656,3.233,3.233,0,0,0,4.457,1.363,3.425,3.425,0,0,1,.947-2.143c-3.412-.389-7.016-1.753-7.016-7.892a6.134,6.134,0,0,1,1.612-4.287,5.684,5.684,0,0,1,.19-4.19s1.327-.389,4.266,1.656a12.912,12.912,0,0,1,3.886-.487,17.01,17.01,0,0,1,3.887.486c2.939-2.046,4.266-1.656,4.266-1.656a6.262,6.262,0,0,1,.189,4.19,6.4,6.4,0,0,1,1.61,4.287c0,6.139-3.6,7.406-7.016,7.795a3.774,3.774,0,0,1,1.043,2.923v4.385a.815.815,0,0,0,1.043.78A15.916,15.916,0,0,0,15.964,1.151Z" transform="translate(370.486 331.85)" fill="#aaa" fill-rule="evenodd" />
  </g>
</svg>
