<svg xmlns="http://www.w3.org/2000/svg" width="32" height="32" viewBox="0 0 32 32">
  <path id="前面オブジェクトで型抜き_2" data-name="前面オブジェクトで型抜き 2" d="M16,32A16,16,0,0,1,4.686,4.686,16,16,0,1,1,27.314,27.314,15.9,15.9,0,0,1,16,32ZM6.723,8.169A.724.724,0,0,0,6,8.893V23.356a.724.724,0,0,0,.723.724h18.8a.724.724,0,0,0,.723-.724V8.893a.724.724,0,0,0-.723-.724Zm9.4,9.4a.728.728,0,0,1-.444-.152L8.6,11.912l.888-1.141,6.636,5.161,6.636-5.161.887,1.141-7.079,5.506A.728.728,0,0,1,16.124,17.57Z" fill="#aaa" />
</svg>
