<svg xmlns="http://www.w3.org/2000/svg" width="56" height="56" viewBox="0 0 56 56">
  <g id="Pocket" transform="translate(-633 -83)">
    <rect id="長方形_4" data-name="長方形 4" width="42" height="28" transform="translate(640 95)" fill="#fff"/>
    <path id="pocket-2" data-name="pocket" d="M79.971,261.708c-2.942.192-4.724,1.872-4.724,4.859V284.46c0,14.533,14.454,25.954,26.957,25.864,14.059-.1,27.047-11.973,27.047-25.864V266.567c0-3-1.894-4.69-4.859-4.859H79.971Zm11.387,14.555,10.846,10.3,10.857-10.3c4.859-2.041,6.979,3.506,4.983,5.13l-14.138,13.5a4.529,4.529,0,0,1-3.394,0l-14.138-13.5c-1.905-1.793.575-7.43,4.983-5.13Z" transform="translate(558.753 -174.708)" fill="#ef4056"/>
  </g>
  <rect id="長方形_3" data-name="長方形 3" width="56" height="56" fill="none"/>
</svg>
