<svg xmlns="http://www.w3.org/2000/svg" width="32" height="32" viewBox="0 0 32 32">
  <g id="twitter" transform="translate(-559 -442)">
    <g id="Twitter_Social_Icon_Circle_Color" transform="translate(559 442)">
      <path id="前面オブジェクトで型抜き_1" data-name="前面オブジェクトで型抜き 1" d="M-543-410a15.9,15.9,0,0,1-11.314-4.686A15.894,15.894,0,0,1-559-426a15.9,15.9,0,0,1,4.686-11.314A15.9,15.9,0,0,1-543-442a15.894,15.894,0,0,1,11.313,4.686A15.9,15.9,0,0,1-527-426a15.9,15.9,0,0,1-4.686,11.313A15.894,15.894,0,0,1-543-410Zm-8.4-9.329a10.393,10.393,0,0,0,5.693,1.692h.028a10.21,10.21,0,0,0,7.911-3.472,11.024,11.024,0,0,0,2.745-7.184c0-.161,0-.327-.008-.482a7.646,7.646,0,0,0,1.872-1.943,7.6,7.6,0,0,1-2.151.59,3.739,3.739,0,0,0,1.646-2.074,7.573,7.573,0,0,1-2.377.908,3.761,3.761,0,0,0-2.731-1.181,3.73,3.73,0,0,0-1.378.263,3.727,3.727,0,0,0-2.369,3.481,3.408,3.408,0,0,0,.1.858,10.645,10.645,0,0,1-7.721-3.914,3.749,3.749,0,0,0,1.165,4.994,3.709,3.709,0,0,1-1.694-.466v.047a3.762,3.762,0,0,0,3.007,3.674,3.724,3.724,0,0,1-.986.132,3.6,3.6,0,0,1-.707-.07,3.739,3.739,0,0,0,3.5,2.6,7.56,7.56,0,0,1-4.64,1.6h-.012A6.928,6.928,0,0,1-551.4-419.329Z" transform="translate(559 442)" fill="#aaa" />
    </g>
    <rect id="長方形_2" data-name="長方形 2" width="32" height="32" transform="translate(559 442)" fill="none" />
  </g>
</svg>
