<svg xmlns="http://www.w3.org/2000/svg" width="32" height="32" viewBox="0 0 32 32">
  <g id="twitter" transform="translate(-559 -442)">
    <g id="Twitter_Social_Icon_Circle_Color" transform="translate(559 442)">
      <path id="前面オブジェクトで型抜き_1" data-name="前面オブジェクトで型抜き 1" d="M-543-410a15.9,15.9,0,0,1-11.314-4.686A15.894,15.894,0,0,1-559-426a15.9,15.9,0,0,1,4.686-11.314A15.9,15.9,0,0,1-543-442a15.894,15.894,0,0,1,11.313,4.686A15.9,15.9,0,0,1-527-426a15.9,15.9,0,0,1-4.686,11.313A15.894,15.894,0,0,1-543-410Zm-11-8.6h0a13,13,0,0,0,7.109,2.111h.031a13.461,13.461,0,0,0,5.7-1.209,12.578,12.578,0,0,0,4.167-3.123,13.753,13.753,0,0,0,3.424-8.962c0-.2,0-.407-.01-.6a9.552,9.552,0,0,0,2.336-2.424,9.482,9.482,0,0,1-2.684.736,4.663,4.663,0,0,0,2.054-2.587,9.436,9.436,0,0,1-2.965,1.133A4.694,4.694,0,0,0-538.244-435a4.654,4.654,0,0,0-1.719.328,4.66,4.66,0,0,0-2.145,1.717,4.653,4.653,0,0,0-.81,2.626,4.246,4.246,0,0,0,.126,1.069,13.273,13.273,0,0,1-9.631-4.882,4.677,4.677,0,0,0,1.453,6.23,4.62,4.62,0,0,1-2.112-.581v.059a4.692,4.692,0,0,0,3.75,4.583,4.654,4.654,0,0,1-1.23.165h-.013a4.479,4.479,0,0,1-.869-.086,4.664,4.664,0,0,0,4.361,3.245,9.433,9.433,0,0,1-5.788,2h-.036A8.593,8.593,0,0,1-554-418.6Z" transform="translate(559 442)" fill="#aaa" />
    </g>
    <rect id="長方形_2" data-name="長方形 2" width="32" height="32" transform="translate(559 442)" fill="none" />
  </g>
</svg>
