<svg id="twitter" xmlns="http://www.w3.org/2000/svg" width="32" height="32" viewBox="0 0 32 32">
  <g id="Twitter_Social_Icon_Circle_Color" transform="translate(0 0)">
    <g id="Dark_Blue">
      <circle id="楕円形_1" data-name="楕円形 1" cx="16" cy="16" r="16" fill="#1da1f2" />
    </g>
    <g id="Logo__x2014__FIXED" transform="translate(7.227 9.221)">
      <path id="パス_1" data-name="パス 1" d="M95.637,129.884a10.977,10.977,0,0,0,11.052-11.052c0-.169,0-.338-.008-.5a7.957,7.957,0,0,0,1.941-2.015,7.881,7.881,0,0,1-2.231.612,3.882,3.882,0,0,0,1.708-2.151,7.866,7.866,0,0,1-2.465.942,3.886,3.886,0,0,0-6.718,2.658,3.559,3.559,0,0,0,.1.889,11.019,11.019,0,0,1-8.007-4.059,3.882,3.882,0,0,0,1.208,5.179,3.816,3.816,0,0,1-1.756-.484v.049a3.889,3.889,0,0,0,3.118,3.81,3.872,3.872,0,0,1-1.023.137,3.708,3.708,0,0,1-.733-.072,3.879,3.879,0,0,0,3.625,2.7,7.808,7.808,0,0,1-4.825,1.659,7.065,7.065,0,0,1-.926-.059,10.822,10.822,0,0,0,5.937,1.756" transform="translate(-89.702 -114.497)" fill="#fff" />
    </g>
  </g>
  <rect id="長方形_2" data-name="長方形 2" width="32" height="32" transform="translate(0 0)" fill="none" />
</svg>
